<svg xmlns="http://www.w3.org/2000/svg" width="10.759" height="19" viewBox="0 0 10.759 19">
  <g id="icon_1_" data-name="icon (1)" transform="translate(-5.951)">
    <path id="Path_44" data-name="Path 44" d="M15.328,0H7.334A1.383,1.383,0,0,0,5.951,1.384V17.617A1.382,1.382,0,0,0,7.334,19h7.994a1.383,1.383,0,0,0,1.383-1.383V1.384A1.384,1.384,0,0,0,15.328,0ZM9.358.841H13.3c.1,0,.181.149.181.333s-.081.334-.181.334H9.358c-.1,0-.18-.15-.18-.334S9.258.841,9.358.841Zm1.973,16.793a.883.883,0,1,1,.881-.883A.884.884,0,0,1,11.331,17.634Zm4.343-3.025H6.987V2.335h8.687V14.609Z" fill="#4cb8e0"/>
  </g>
</svg>
