<svg xmlns="http://www.w3.org/2000/svg" width="25.79" height="19" viewBox="0 0 25.79 19">
  <g id="email_1_" data-name="email (1)" transform="translate(0 -57.088)">
    <g id="Group_75" data-name="Group 75" transform="translate(0 62.447)">
      <g id="Group_74" data-name="Group 74" transform="translate(0 0)">
        <path id="Path_39" data-name="Path 39" d="M13.641,154.6a1.466,1.466,0,0,1-1.522,0L0,147.2v9.835a3.807,3.807,0,0,0,3.806,3.806H21.984a3.807,3.807,0,0,0,3.806-3.806V147.2Z" transform="translate(0 -147.2)" fill="#4cb8e0"/>
      </g>
    </g>
    <g id="Group_77" data-name="Group 77" transform="translate(0.122 57.088)">
      <g id="Group_76" data-name="Group 76" transform="translate(0 0)">
        <path id="Path_40" data-name="Path 40" d="M23.91,57.088H5.732a3.784,3.784,0,0,0-3.684,2.984l12.788,7.795,12.758-7.795A3.784,3.784,0,0,0,23.91,57.088Z" transform="translate(-2.048 -57.088)" fill="#4cb8e0"/>
      </g>
    </g>
  </g>
</svg>
