<svg xmlns="http://www.w3.org/2000/svg" width="14.252" height="19" viewBox="0 0 14.252 19">
  <g id="home-run_2_" data-name="home-run (2)" transform="translate(-24)">
    <path id="Path_41" data-name="Path 41" d="M31.126,0A7.134,7.134,0,0,0,24,7.126c0,5.021,6.3,11.377,6.566,11.645a.8.8,0,0,0,1.12,0c.268-.268,6.566-6.624,6.566-11.645A7.134,7.134,0,0,0,31.126,0Zm0,11.877a4.751,4.751,0,1,1,4.751-4.751A4.751,4.751,0,0,1,31.126,11.877Z" fill="#4cb8e0"/>
    <path id="Path_42" data-name="Path 42" d="M68.9,45.625l-3.167-1.584a.4.4,0,0,0-.354,0l-3.167,1.584.354.708,1.011-.505v2.527a.4.4,0,0,0,.4.4h3.167a.4.4,0,0,0,.4-.4V45.828l1.011.505Z" transform="translate(-34.429 -39.645)" fill="#4cb8e0"/>
  </g>
</svg>
