<svg id="user_4_" data-name="user (4)" xmlns="http://www.w3.org/2000/svg" width="19" height="19" viewBox="0 0 19 19">
  <g id="Group_73" data-name="Group 73">
    <path id="Path_38" data-name="Path 38" d="M15.63,14.286,12.6,13.527l-.258-1.032a5.458,5.458,0,0,0,1.532-3.039,1.19,1.19,0,0,0,.858-1l.2-1.583a1.185,1.185,0,0,0-.758-1.256l.073-1.491.3-.3a1.827,1.827,0,0,0,.043-2.467,3.326,3.326,0,0,0-3-1.366,5.218,5.218,0,0,0-3,.793C5.209.864,4.75,2.43,4.75,3.958c0,.355.086,1.156.143,1.639a1.189,1.189,0,0,0-.82,1.28l.2,1.583a1.191,1.191,0,0,0,.952,1.019,5.493,5.493,0,0,0,1.456,2.947l-.275,1.1-3.033.758A4.44,4.44,0,0,0,0,18.6a.4.4,0,0,0,.4.4H18.6a.4.4,0,0,0,.4-.4A4.443,4.443,0,0,0,15.63,14.286Z" fill="#4cb8e0"/>
  </g>
</svg>
